<?xml version="1.0" encoding="UTF-8"?>
<svg width="890px" height="182px" viewBox="0 0 890 182" version="1.1" xmlns="http://www.w3.org/2000/svg" xmlns:xlink="http://www.w3.org/1999/xlink">
    <!-- Generator: Sketch 58 (84663) - https://sketch.com -->
    <g id="Scratchpad" stroke="none" stroke-width="1" fill="none" fill-rule="evenodd">
        <g id="Header" fill-rule="nonzero">
            <g id="devonray">
                <path d="M69.8467836,141.284 L66.7933723,132.894667 C61.4498758,136.326684 56.2018776,138.868881 51.0492203,140.521333 C45.8965629,142.173786 40.5213405,143 34.9233918,143 C23.7274944,143 15.1080549,138.582933 9.06481481,129.748667 C3.02157472,120.9144 -8.52651283e-14,108.171639 -8.52651283e-14,91.52 C-8.52651283e-14,78.8088253 1.71752668,68.3858185 5.15263158,60.2506667 C8.58773647,52.1155149 13.8993468,46.04602 21.0876218,42.042 C28.2758969,38.03798 37.3406211,36.036 48.2820663,36.036 C51.2082667,36.036 54.2298415,36.1631098 57.3468811,36.4173333 C60.4639207,36.6715568 63.5491075,37.0528863 66.6025341,37.5613333 L66.6025341,2.84217094e-14 L92.1748538,2.84217094e-14 L92.1748538,141.284 L69.8467836,141.284 Z M66.6025341,114.781333 L66.6025341,57.0093333 C63.4218814,56.1195511 60.4957249,55.5157794 57.8239766,55.198 C55.1522284,54.8802206 52.6077444,54.7213333 50.1904483,54.7213333 C44.7197257,54.7213333 40.2350727,55.801767 36.7363548,57.9626667 C33.2376368,60.1235664 30.6295408,63.7461968 28.9119883,68.8306667 C27.1944359,73.9151365 26.3356725,80.715513 26.3356725,89.232 C26.3356725,96.7315931 27.0672117,102.89642 28.5303119,107.726667 C29.9934121,112.556913 32.0926114,116.115989 34.8279727,118.404 C37.563334,120.692011 40.9029692,121.836 44.8469786,121.836 C47.1370485,121.836 49.4270841,121.58178 51.717154,121.073333 C54.0072239,120.564886 56.3608716,119.802227 58.7781676,118.785333 C61.1954637,117.768439 63.8035598,116.433786 66.6025341,114.781333 Z M170.032188,143 C162.271395,143 155.401289,142.014899 149.421662,140.044667 C143.442035,138.074435 138.384873,135.023798 134.250024,130.892667 C130.115176,126.761535 126.998183,121.486477 124.898952,115.067333 C122.799721,108.64819 121.750122,100.989822 121.750122,92.092 C121.750122,81.7959485 122.990558,73.057147 125.471467,65.8753333 C127.952376,58.6935196 131.482847,52.9100219 136.062987,48.5246667 C140.643127,44.1393114 145.986543,40.9615654 152.093396,38.9913333 C158.20025,37.0211013 164.87952,36.036 172.131408,36.036 C186.507958,36.036 197.099373,39.6586304 203.90597,46.904 C210.712566,54.1493696 214.115814,65.9705847 214.115814,82.368 L214.115814,86.7533333 C214.115814,88.5328978 213.988589,90.2488806 213.734137,91.9013333 L202.474683,92.8546667 L202.474683,92.8546667 L197.703724,93.2359996 C194.395868,93.4902214 190.833572,93.7444432 187.016788,93.9986667 L183.528258,94.2198406 C178.805649,94.5045697 173.798088,94.7486212 168.505482,94.952 L155.019591,95.4604442 C152.729536,95.5451848 150.418273,95.6299255 148.085794,95.7146667 C147.958568,96.0960019 147.894956,96.5408863 147.894956,97.0493333 L147.894956,98.5746667 C147.894956,104.421807 148.880943,109.093094 150.852948,112.588667 C152.824953,116.08424 155.782915,118.689991 159.726925,120.406 C163.670934,122.122009 168.632678,122.98 174.612305,122.98 C178.429088,122.98 182.341232,122.757558 186.348855,122.312667 C190.356477,121.867776 194.364039,121.295781 198.371662,120.596667 C202.379284,119.897552 206.291428,119.103116 210.108211,118.213333 L213.161623,136.898667 C209.090387,138.169784 204.764764,139.281995 200.184625,140.235333 C195.604485,141.188671 190.833577,141.887776 185.871759,142.332667 C180.909941,142.777558 175.630137,143 170.032188,143 Z M148.276632,79.3173333 C152.729546,79.3173333 157.023363,79.222001 161.158211,79.0313333 L169.67777,78.6227622 C170.768272,78.568286 171.840602,78.5138098 172.894761,78.4593333 L178.477962,78.1473334 C179.617731,78.0780002 180.690208,78.008667 181.695396,77.9393335 L187.923268,77.4768705 C188.209525,77.4539199 188.47988,77.431852 188.734332,77.4106667 C188.607106,71.8177498 187.875567,67.3053505 186.539693,63.8733333 C185.203819,60.4413162 183.168231,57.9626743 180.43287,56.4373333 C177.697509,54.9119924 174.294262,54.1493333 170.223026,54.1493333 C167.678504,54.1493333 165.197632,54.5306629 162.780336,55.2933333 C160.36304,56.0560038 158.136617,57.3906571 156.100999,59.2973333 C154.065381,61.2040095 152.37966,63.7462063 151.043786,66.924 C149.707912,70.1017937 148.785537,74.2328635 148.276632,79.3173333 Z M268.805731,141.093333 L231.973957,38.324 L258.882145,37.5613333 L283.88195,118.404 L307.927564,37.5613333 L334.644913,38.324 L297.431462,141.093333 L268.805731,141.093333 Z M351.531734,89.4226667 C351.531734,80.6519561 352.326885,72.9618108 353.917211,66.352 C355.507538,59.7421892 358.115634,54.2129111 361.741578,49.764 C365.367522,45.3150889 370.29746,41.9149006 376.531539,39.5633333 C382.765618,37.211766 390.462682,36.036 399.622962,36.036 C408.910468,36.036 416.639338,37.211766 422.809804,39.5633333 C428.98027,41.9149006 433.910208,45.3150889 437.599765,49.764 C441.289322,54.2129111 443.929224,59.7421892 445.51955,66.352 C447.109877,72.9618108 447.905028,80.6519561 447.905028,89.4226667 C447.905028,98.1933772 447.046265,105.947077 445.328712,112.684 C443.61116,119.420923 440.844034,125.013756 437.02725,129.462667 C433.210467,133.911578 428.248723,137.279989 422.14187,139.568 C416.035017,141.856011 408.528789,143 399.622962,143 C390.84436,143 383.369939,141.856011 377.199473,139.568 C371.029006,137.279989 366.067263,133.911578 362.314092,129.462667 C358.560922,125.013756 355.825602,119.420923 354.10805,112.684 C352.390497,105.947077 351.531734,98.1933772 351.531734,89.4226667 Z M377.48573,89.4226667 C377.48573,97.9391537 378.249075,104.707753 379.775788,109.728667 C381.302502,114.749581 383.719761,118.340434 387.02764,120.501333 C390.335519,122.662233 394.533918,123.742667 399.622962,123.742667 C404.966458,123.742667 409.260275,122.662233 412.504541,120.501333 C415.748806,118.340434 418.102454,114.749581 419.565554,109.728667 C421.028655,104.707753 421.760194,97.9391537 421.760194,89.4226667 C421.760194,80.9061796 421.092267,74.1693581 419.756393,69.212 C418.420518,64.2546419 416.130483,60.6955664 412.886217,58.5346667 C409.641951,56.373767 405.220911,55.2933333 399.622962,55.2933333 C394.152239,55.2933333 389.79481,56.373767 386.550545,58.5346667 C383.306279,60.6955664 380.984437,64.2546419 379.58495,69.212 C378.185463,74.1693581 377.48573,80.9061796 377.48573,89.4226667 Z M477.365835,141.093333 L477.365835,37.9426667 L500.457258,37.9426667 L500.457258,46.904 C504.65572,44.4888768 508.663282,42.4868968 512.480065,40.898 C516.296849,39.3091032 520.081769,38.1015597 523.834939,37.2753333 C527.588109,36.449107 531.563865,36.036 535.762327,36.036 C542.378084,36.036 547.880531,37.211766 552.269832,39.5633333 C556.659132,41.9149006 559.935155,45.2515339 562.097999,49.5733333 C564.260843,53.8951327 565.342249,59.1066362 565.342249,65.208 L565.342249,141.093333 L539.960767,141.093333 L539.960767,73.216 C539.960767,67.8773066 538.720331,63.9051241 536.239422,61.2993333 C533.758513,58.6935425 530.037205,57.3906667 525.075387,57.3906667 C522.530865,57.3906667 520.049993,57.6766638 517.632697,58.2486667 C515.215401,58.8206695 512.798141,59.5515511 510.380845,60.4413333 C507.963549,61.3311156 505.419065,62.4751041 502.747317,63.8733333 L502.747317,141.093333 L477.365835,141.093333 Z" id="devon" fill="#FFFFFF"></path>
                <path d="M621.992553,37.9426667 L621.992553,50.1453333 C625.554884,46.8404279 628.894519,44.1393438 632.011559,42.042 C635.128599,39.9446562 638.309204,38.4193381 641.553469,37.466 C644.797735,36.5126619 648.200983,36.036 651.763314,36.036 C654.053383,36.036 656.375225,36.1948873 658.728908,36.5126667 C661.082591,36.830446 663.404433,37.3706629 665.694503,38.1333333 L661.6869,61.0133333 C659.39683,60.5048863 657.074989,60.0917794 654.721306,59.774 C652.367623,59.4562206 650.173005,59.2973333 648.137388,59.2973333 C644.44783,59.2973333 640.631105,59.9964375 636.687095,61.3946667 C632.743086,62.7928959 628.608299,65.2079828 624.282612,68.64 L624.282612,141.093333 L598.90113,141.093333 L598.90113,37.9426667 L621.992553,37.9426667 Z M679.311898,114.209333 C679.311898,107.853746 680.520527,102.67402 682.937823,98.67 C685.355119,94.66598 689.076427,91.488234 694.101859,89.1366667 C699.12729,86.7850994 705.424888,84.9420067 712.994841,83.6073333 C720.564794,82.27266 729.438682,81.2240038 739.616771,80.4613333 L739.616771,70.928 C739.616771,66.3519771 737.899244,62.9517889 734.464139,60.7273333 C731.029034,58.5028778 726.067291,57.3906667 719.578759,57.3906667 C716.907011,57.3906667 713.917242,57.5177765 710.609363,57.772 C707.301485,58.0262235 703.866431,58.4711079 700.3041,59.1066667 C696.741769,59.7422254 693.11588,60.6319943 689.426322,61.776 L685.037044,41.5653333 C690.762219,39.7857689 696.837174,38.4193381 703.262092,37.466 C709.687011,36.5126619 715.698354,36.036 721.296303,36.036 C731.347165,36.036 739.616738,37.3388759 746.10527,39.9446667 C752.593801,42.5504575 757.396515,46.4273076 760.513554,51.5753333 C763.630594,56.7233591 765.189091,63.1106285 765.189091,70.7373333 L765.189091,111.921333 C765.189091,115.480462 765.697987,117.895549 766.715796,119.166667 C767.733605,120.437784 769.005847,121.073333 770.53256,121.073333 C771.168691,121.073333 771.932036,121.009778 772.822619,120.882667 C773.713202,120.755555 774.540159,120.501335 775.303515,120.12 L777.402736,138.614667 C775.239892,139.885784 772.75902,140.93444 769.960046,141.760667 C767.161071,142.586893 764.171303,143 760.99065,143 C755.901606,143 751.830431,141.951344 748.777005,139.854 C745.723578,137.756656 743.497155,134.547133 742.097668,130.225333 C738.917015,132.640457 735.545574,134.833101 731.983243,136.803333 C728.420912,138.773565 724.604186,140.298883 720.53295,141.379333 C716.461715,142.459783 711.945256,143 706.983437,143 C702.784976,143 699.031862,142.364451 695.723983,141.093333 C692.416105,139.822216 689.521754,137.947346 687.040845,135.468667 C684.559936,132.989988 682.651573,129.971129 681.315699,126.412 C679.979825,122.852871 679.311898,118.785356 679.311898,114.209333 Z M705.075055,112.493333 C705.075055,116.942244 706.124655,120.278878 708.223886,122.503333 C710.323117,124.727789 713.153855,125.84 716.716186,125.84 C719.387934,125.84 722.091448,125.395116 724.82681,124.505333 C727.562171,123.615551 730.233879,122.439785 732.842014,120.978 C735.45015,119.516215 737.708379,117.768455 739.616771,115.734667 L739.616771,94.5706667 C734.146048,94.8248902 729.279723,95.3333295 725.017648,96.096 C720.755573,96.8586705 717.129684,97.8755492 714.13987,99.1466667 C711.150057,100.417784 708.891827,102.133767 707.365114,104.294667 C705.838401,106.455566 705.075055,109.188428 705.075055,112.493333 Z M816.11984,180.942667 L828.906,141.093333 L824.516721,141.093333 L786.158241,38.1333333 L814.020619,37.5613333 L839.402101,120.12 L863.066039,37.5613333 L889.210873,38.1333333 L842.264674,181.514667 L816.11984,180.942667 Z" id="ray" fill="#3FB3A0"></path>
            </g>
        </g>
    </g>
</svg>